<?xml version="1.0" encoding="utf-8"?>
<svg width="360" height="360" viewBox="0 0 360 360"
		 xmlns="http://www.w3.org/2000/svg" xmlns:xlink="http://www.w3.org/1999/xlink" xmlns:ev="http://www.w3.org/2001/xml-events">
<rect x="0" y="0" width="360" height="360" fill="#ffffff"/>
<defs>
<rect id="p" width="8" height="8"/>
</defs>
<g fill="#000000">
<use xlink:href="#p" x="32" y="32"/>
<use xlink:href="#p" x="32" y="40"/>
<use xlink:href="#p" x="32" y="48"/>
<use xlink:href="#p" x="32" y="56"/>
<use xlink:href="#p" x="32" y="64"/>
<use xlink:href="#p" x="32" y="72"/>
<use xlink:href="#p" x="32" y="80"/>
<use xlink:href="#p" x="32" y="104"/>
<use xlink:href="#p" x="32" y="112"/>
<use xlink:href="#p" x="32" y="128"/>
<use xlink:href="#p" x="32" y="136"/>
<use xlink:href="#p" x="32" y="152"/>
<use xlink:href="#p" x="32" y="168"/>
<use xlink:href="#p" x="32" y="176"/>
<use xlink:href="#p" x="32" y="184"/>
<use xlink:href="#p" x="32" y="192"/>
<use xlink:href="#p" x="32" y="224"/>
<use xlink:href="#p" x="32" y="272"/>
<use xlink:href="#p" x="32" y="280"/>
<use xlink:href="#p" x="32" y="288"/>
<use xlink:href="#p" x="32" y="296"/>
<use xlink:href="#p" x="32" y="304"/>
<use xlink:href="#p" x="32" y="312"/>
<use xlink:href="#p" x="32" y="320"/>
<use xlink:href="#p" x="40" y="32"/>
<use xlink:href="#p" x="40" y="80"/>
<use xlink:href="#p" x="40" y="112"/>
<use xlink:href="#p" x="40" y="128"/>
<use xlink:href="#p" x="40" y="152"/>
<use xlink:href="#p" x="40" y="176"/>
<use xlink:href="#p" x="40" y="192"/>
<use xlink:href="#p" x="40" y="200"/>
<use xlink:href="#p" x="40" y="208"/>
<use xlink:href="#p" x="40" y="216"/>
<use xlink:href="#p" x="40" y="240"/>
<use xlink:href="#p" x="40" y="248"/>
<use xlink:href="#p" x="40" y="256"/>
<use xlink:href="#p" x="40" y="272"/>
<use xlink:href="#p" x="40" y="320"/>
<use xlink:href="#p" x="48" y="32"/>
<use xlink:href="#p" x="48" y="48"/>
<use xlink:href="#p" x="48" y="56"/>
<use xlink:href="#p" x="48" y="64"/>
<use xlink:href="#p" x="48" y="80"/>
<use xlink:href="#p" x="48" y="104"/>
<use xlink:href="#p" x="48" y="120"/>
<use xlink:href="#p" x="48" y="136"/>
<use xlink:href="#p" x="48" y="144"/>
<use xlink:href="#p" x="48" y="152"/>
<use xlink:href="#p" x="48" y="184"/>
<use xlink:href="#p" x="48" y="192"/>
<use xlink:href="#p" x="48" y="200"/>
<use xlink:href="#p" x="48" y="216"/>
<use xlink:href="#p" x="48" y="240"/>
<use xlink:href="#p" x="48" y="272"/>
<use xlink:href="#p" x="48" y="288"/>
<use xlink:href="#p" x="48" y="296"/>
<use xlink:href="#p" x="48" y="304"/>
<use xlink:href="#p" x="48" y="320"/>
<use xlink:href="#p" x="56" y="32"/>
<use xlink:href="#p" x="56" y="48"/>
<use xlink:href="#p" x="56" y="56"/>
<use xlink:href="#p" x="56" y="64"/>
<use xlink:href="#p" x="56" y="80"/>
<use xlink:href="#p" x="56" y="112"/>
<use xlink:href="#p" x="56" y="120"/>
<use xlink:href="#p" x="56" y="136"/>
<use xlink:href="#p" x="56" y="144"/>
<use xlink:href="#p" x="56" y="160"/>
<use xlink:href="#p" x="56" y="200"/>
<use xlink:href="#p" x="56" y="216"/>
<use xlink:href="#p" x="56" y="224"/>
<use xlink:href="#p" x="56" y="232"/>
<use xlink:href="#p" x="56" y="240"/>
<use xlink:href="#p" x="56" y="272"/>
<use xlink:href="#p" x="56" y="288"/>
<use xlink:href="#p" x="56" y="296"/>
<use xlink:href="#p" x="56" y="304"/>
<use xlink:href="#p" x="56" y="320"/>
<use xlink:href="#p" x="64" y="32"/>
<use xlink:href="#p" x="64" y="48"/>
<use xlink:href="#p" x="64" y="56"/>
<use xlink:href="#p" x="64" y="64"/>
<use xlink:href="#p" x="64" y="80"/>
<use xlink:href="#p" x="64" y="120"/>
<use xlink:href="#p" x="64" y="128"/>
<use xlink:href="#p" x="64" y="136"/>
<use xlink:href="#p" x="64" y="144"/>
<use xlink:href="#p" x="64" y="160"/>
<use xlink:href="#p" x="64" y="168"/>
<use xlink:href="#p" x="64" y="192"/>
<use xlink:href="#p" x="64" y="200"/>
<use xlink:href="#p" x="64" y="240"/>
<use xlink:href="#p" x="64" y="272"/>
<use xlink:href="#p" x="64" y="288"/>
<use xlink:href="#p" x="64" y="296"/>
<use xlink:href="#p" x="64" y="304"/>
<use xlink:href="#p" x="64" y="320"/>
<use xlink:href="#p" x="72" y="32"/>
<use xlink:href="#p" x="72" y="80"/>
<use xlink:href="#p" x="72" y="96"/>
<use xlink:href="#p" x="72" y="104"/>
<use xlink:href="#p" x="72" y="112"/>
<use xlink:href="#p" x="72" y="128"/>
<use xlink:href="#p" x="72" y="136"/>
<use xlink:href="#p" x="72" y="144"/>
<use xlink:href="#p" x="72" y="152"/>
<use xlink:href="#p" x="72" y="168"/>
<use xlink:href="#p" x="72" y="184"/>
<use xlink:href="#p" x="72" y="200"/>
<use xlink:href="#p" x="72" y="208"/>
<use xlink:href="#p" x="72" y="232"/>
<use xlink:href="#p" x="72" y="248"/>
<use xlink:href="#p" x="72" y="272"/>
<use xlink:href="#p" x="72" y="320"/>
<use xlink:href="#p" x="80" y="32"/>
<use xlink:href="#p" x="80" y="40"/>
<use xlink:href="#p" x="80" y="48"/>
<use xlink:href="#p" x="80" y="56"/>
<use xlink:href="#p" x="80" y="64"/>
<use xlink:href="#p" x="80" y="72"/>
<use xlink:href="#p" x="80" y="80"/>
<use xlink:href="#p" x="80" y="96"/>
<use xlink:href="#p" x="80" y="112"/>
<use xlink:href="#p" x="80" y="128"/>
<use xlink:href="#p" x="80" y="144"/>
<use xlink:href="#p" x="80" y="160"/>
<use xlink:href="#p" x="80" y="176"/>
<use xlink:href="#p" x="80" y="192"/>
<use xlink:href="#p" x="80" y="208"/>
<use xlink:href="#p" x="80" y="224"/>
<use xlink:href="#p" x="80" y="240"/>
<use xlink:href="#p" x="80" y="256"/>
<use xlink:href="#p" x="80" y="272"/>
<use xlink:href="#p" x="80" y="280"/>
<use xlink:href="#p" x="80" y="288"/>
<use xlink:href="#p" x="80" y="296"/>
<use xlink:href="#p" x="80" y="304"/>
<use xlink:href="#p" x="80" y="312"/>
<use xlink:href="#p" x="80" y="320"/>
<use xlink:href="#p" x="88" y="104"/>
<use xlink:href="#p" x="88" y="112"/>
<use xlink:href="#p" x="88" y="120"/>
<use xlink:href="#p" x="88" y="128"/>
<use xlink:href="#p" x="88" y="152"/>
<use xlink:href="#p" x="88" y="168"/>
<use xlink:href="#p" x="88" y="184"/>
<use xlink:href="#p" x="88" y="200"/>
<use xlink:href="#p" x="88" y="232"/>
<use xlink:href="#p" x="88" y="240"/>
<use xlink:href="#p" x="88" y="248"/>
<use xlink:href="#p" x="96" y="32"/>
<use xlink:href="#p" x="96" y="48"/>
<use xlink:href="#p" x="96" y="64"/>
<use xlink:href="#p" x="96" y="80"/>
<use xlink:href="#p" x="96" y="88"/>
<use xlink:href="#p" x="96" y="136"/>
<use xlink:href="#p" x="96" y="144"/>
<use xlink:href="#p" x="96" y="152"/>
<use xlink:href="#p" x="96" y="200"/>
<use xlink:href="#p" x="96" y="208"/>
<use xlink:href="#p" x="96" y="224"/>
<use xlink:href="#p" x="96" y="232"/>
<use xlink:href="#p" x="96" y="264"/>
<use xlink:href="#p" x="96" y="280"/>
<use xlink:href="#p" x="104" y="32"/>
<use xlink:href="#p" x="104" y="56"/>
<use xlink:href="#p" x="104" y="88"/>
<use xlink:href="#p" x="104" y="144"/>
<use xlink:href="#p" x="104" y="152"/>
<use xlink:href="#p" x="104" y="160"/>
<use xlink:href="#p" x="104" y="168"/>
<use xlink:href="#p" x="104" y="176"/>
<use xlink:href="#p" x="104" y="192"/>
<use xlink:href="#p" x="104" y="200"/>
<use xlink:href="#p" x="104" y="208"/>
<use xlink:href="#p" x="104" y="216"/>
<use xlink:href="#p" x="104" y="224"/>
<use xlink:href="#p" x="104" y="240"/>
<use xlink:href="#p" x="104" y="248"/>
<use xlink:href="#p" x="104" y="256"/>
<use xlink:href="#p" x="104" y="272"/>
<use xlink:href="#p" x="104" y="304"/>
<use xlink:href="#p" x="112" y="56"/>
<use xlink:href="#p" x="112" y="80"/>
<use xlink:href="#p" x="112" y="104"/>
<use xlink:href="#p" x="112" y="112"/>
<use xlink:href="#p" x="112" y="128"/>
<use xlink:href="#p" x="112" y="144"/>
<use xlink:href="#p" x="112" y="152"/>
<use xlink:href="#p" x="112" y="160"/>
<use xlink:href="#p" x="112" y="168"/>
<use xlink:href="#p" x="112" y="184"/>
<use xlink:href="#p" x="112" y="216"/>
<use xlink:href="#p" x="112" y="224"/>
<use xlink:href="#p" x="112" y="240"/>
<use xlink:href="#p" x="112" y="248"/>
<use xlink:href="#p" x="112" y="288"/>
<use xlink:href="#p" x="112" y="304"/>
<use xlink:href="#p" x="120" y="40"/>
<use xlink:href="#p" x="120" y="56"/>
<use xlink:href="#p" x="120" y="64"/>
<use xlink:href="#p" x="120" y="112"/>
<use xlink:href="#p" x="120" y="160"/>
<use xlink:href="#p" x="120" y="208"/>
<use xlink:href="#p" x="120" y="216"/>
<use xlink:href="#p" x="120" y="256"/>
<use xlink:href="#p" x="120" y="264"/>
<use xlink:href="#p" x="120" y="288"/>
<use xlink:href="#p" x="128" y="32"/>
<use xlink:href="#p" x="128" y="64"/>
<use xlink:href="#p" x="128" y="80"/>
<use xlink:href="#p" x="128" y="96"/>
<use xlink:href="#p" x="128" y="104"/>
<use xlink:href="#p" x="128" y="112"/>
<use xlink:href="#p" x="128" y="144"/>
<use xlink:href="#p" x="128" y="160"/>
<use xlink:href="#p" x="128" y="168"/>
<use xlink:href="#p" x="128" y="184"/>
<use xlink:href="#p" x="128" y="192"/>
<use xlink:href="#p" x="128" y="208"/>
<use xlink:href="#p" x="128" y="216"/>
<use xlink:href="#p" x="128" y="256"/>
<use xlink:href="#p" x="128" y="264"/>
<use xlink:href="#p" x="128" y="280"/>
<use xlink:href="#p" x="128" y="296"/>
<use xlink:href="#p" x="128" y="312"/>
<use xlink:href="#p" x="128" y="320"/>
<use xlink:href="#p" x="136" y="32"/>
<use xlink:href="#p" x="136" y="48"/>
<use xlink:href="#p" x="136" y="64"/>
<use xlink:href="#p" x="136" y="72"/>
<use xlink:href="#p" x="136" y="88"/>
<use xlink:href="#p" x="136" y="96"/>
<use xlink:href="#p" x="136" y="104"/>
<use xlink:href="#p" x="136" y="112"/>
<use xlink:href="#p" x="136" y="120"/>
<use xlink:href="#p" x="136" y="136"/>
<use xlink:href="#p" x="136" y="144"/>
<use xlink:href="#p" x="136" y="152"/>
<use xlink:href="#p" x="136" y="176"/>
<use xlink:href="#p" x="136" y="200"/>
<use xlink:href="#p" x="136" y="208"/>
<use xlink:href="#p" x="136" y="216"/>
<use xlink:href="#p" x="136" y="224"/>
<use xlink:href="#p" x="136" y="240"/>
<use xlink:href="#p" x="136" y="248"/>
<use xlink:href="#p" x="136" y="256"/>
<use xlink:href="#p" x="136" y="280"/>
<use xlink:href="#p" x="136" y="296"/>
<use xlink:href="#p" x="136" y="312"/>
<use xlink:href="#p" x="144" y="32"/>
<use xlink:href="#p" x="144" y="48"/>
<use xlink:href="#p" x="144" y="56"/>
<use xlink:href="#p" x="144" y="64"/>
<use xlink:href="#p" x="144" y="80"/>
<use xlink:href="#p" x="144" y="88"/>
<use xlink:href="#p" x="144" y="112"/>
<use xlink:href="#p" x="144" y="128"/>
<use xlink:href="#p" x="144" y="208"/>
<use xlink:href="#p" x="144" y="216"/>
<use xlink:href="#p" x="144" y="248"/>
<use xlink:href="#p" x="144" y="264"/>
<use xlink:href="#p" x="144" y="288"/>
<use xlink:href="#p" x="144" y="304"/>
<use xlink:href="#p" x="144" y="320"/>
<use xlink:href="#p" x="152" y="40"/>
<use xlink:href="#p" x="152" y="48"/>
<use xlink:href="#p" x="152" y="56"/>
<use xlink:href="#p" x="152" y="72"/>
<use xlink:href="#p" x="152" y="88"/>
<use xlink:href="#p" x="152" y="136"/>
<use xlink:href="#p" x="152" y="152"/>
<use xlink:href="#p" x="152" y="160"/>
<use xlink:href="#p" x="152" y="176"/>
<use xlink:href="#p" x="152" y="192"/>
<use xlink:href="#p" x="152" y="216"/>
<use xlink:href="#p" x="152" y="224"/>
<use xlink:href="#p" x="152" y="232"/>
<use xlink:href="#p" x="152" y="248"/>
<use xlink:href="#p" x="152" y="256"/>
<use xlink:href="#p" x="152" y="264"/>
<use xlink:href="#p" x="152" y="288"/>
<use xlink:href="#p" x="152" y="296"/>
<use xlink:href="#p" x="152" y="320"/>
<use xlink:href="#p" x="160" y="32"/>
<use xlink:href="#p" x="160" y="64"/>
<use xlink:href="#p" x="160" y="72"/>
<use xlink:href="#p" x="160" y="80"/>
<use xlink:href="#p" x="160" y="104"/>
<use xlink:href="#p" x="160" y="128"/>
<use xlink:href="#p" x="160" y="144"/>
<use xlink:href="#p" x="160" y="160"/>
<use xlink:href="#p" x="160" y="184"/>
<use xlink:href="#p" x="160" y="200"/>
<use xlink:href="#p" x="160" y="208"/>
<use xlink:href="#p" x="160" y="216"/>
<use xlink:href="#p" x="160" y="232"/>
<use xlink:href="#p" x="160" y="256"/>
<use xlink:href="#p" x="160" y="264"/>
<use xlink:href="#p" x="160" y="272"/>
<use xlink:href="#p" x="160" y="296"/>
<use xlink:href="#p" x="160" y="312"/>
<use xlink:href="#p" x="160" y="320"/>
<use xlink:href="#p" x="168" y="32"/>
<use xlink:href="#p" x="168" y="40"/>
<use xlink:href="#p" x="168" y="48"/>
<use xlink:href="#p" x="168" y="56"/>
<use xlink:href="#p" x="168" y="112"/>
<use xlink:href="#p" x="168" y="136"/>
<use xlink:href="#p" x="168" y="144"/>
<use xlink:href="#p" x="168" y="152"/>
<use xlink:href="#p" x="168" y="168"/>
<use xlink:href="#p" x="168" y="200"/>
<use xlink:href="#p" x="168" y="208"/>
<use xlink:href="#p" x="168" y="240"/>
<use xlink:href="#p" x="168" y="248"/>
<use xlink:href="#p" x="168" y="264"/>
<use xlink:href="#p" x="168" y="272"/>
<use xlink:href="#p" x="168" y="296"/>
<use xlink:href="#p" x="168" y="304"/>
<use xlink:href="#p" x="168" y="312"/>
<use xlink:href="#p" x="168" y="320"/>
<use xlink:href="#p" x="176" y="56"/>
<use xlink:href="#p" x="176" y="72"/>
<use xlink:href="#p" x="176" y="80"/>
<use xlink:href="#p" x="176" y="96"/>
<use xlink:href="#p" x="176" y="104"/>
<use xlink:href="#p" x="176" y="128"/>
<use xlink:href="#p" x="176" y="136"/>
<use xlink:href="#p" x="176" y="144"/>
<use xlink:href="#p" x="176" y="152"/>
<use xlink:href="#p" x="176" y="176"/>
<use xlink:href="#p" x="176" y="208"/>
<use xlink:href="#p" x="176" y="224"/>
<use xlink:href="#p" x="176" y="240"/>
<use xlink:href="#p" x="176" y="248"/>
<use xlink:href="#p" x="176" y="256"/>
<use xlink:href="#p" x="176" y="280"/>
<use xlink:href="#p" x="176" y="296"/>
<use xlink:href="#p" x="184" y="40"/>
<use xlink:href="#p" x="184" y="56"/>
<use xlink:href="#p" x="184" y="72"/>
<use xlink:href="#p" x="184" y="144"/>
<use xlink:href="#p" x="184" y="152"/>
<use xlink:href="#p" x="184" y="160"/>
<use xlink:href="#p" x="184" y="168"/>
<use xlink:href="#p" x="184" y="176"/>
<use xlink:href="#p" x="184" y="184"/>
<use xlink:href="#p" x="184" y="200"/>
<use xlink:href="#p" x="184" y="208"/>
<use xlink:href="#p" x="184" y="224"/>
<use xlink:href="#p" x="184" y="232"/>
<use xlink:href="#p" x="184" y="240"/>
<use xlink:href="#p" x="184" y="256"/>
<use xlink:href="#p" x="184" y="264"/>
<use xlink:href="#p" x="184" y="280"/>
<use xlink:href="#p" x="184" y="288"/>
<use xlink:href="#p" x="184" y="312"/>
<use xlink:href="#p" x="184" y="320"/>
<use xlink:href="#p" x="192" y="40"/>
<use xlink:href="#p" x="192" y="48"/>
<use xlink:href="#p" x="192" y="56"/>
<use xlink:href="#p" x="192" y="80"/>
<use xlink:href="#p" x="192" y="88"/>
<use xlink:href="#p" x="192" y="112"/>
<use xlink:href="#p" x="192" y="120"/>
<use xlink:href="#p" x="192" y="136"/>
<use xlink:href="#p" x="192" y="144"/>
<use xlink:href="#p" x="192" y="152"/>
<use xlink:href="#p" x="192" y="160"/>
<use xlink:href="#p" x="192" y="168"/>
<use xlink:href="#p" x="192" y="192"/>
<use xlink:href="#p" x="192" y="208"/>
<use xlink:href="#p" x="192" y="224"/>
<use xlink:href="#p" x="192" y="232"/>
<use xlink:href="#p" x="192" y="248"/>
<use xlink:href="#p" x="192" y="256"/>
<use xlink:href="#p" x="192" y="288"/>
<use xlink:href="#p" x="192" y="296"/>
<use xlink:href="#p" x="192" y="304"/>
<use xlink:href="#p" x="192" y="312"/>
<use xlink:href="#p" x="192" y="320"/>
<use xlink:href="#p" x="200" y="32"/>
<use xlink:href="#p" x="200" y="48"/>
<use xlink:href="#p" x="200" y="56"/>
<use xlink:href="#p" x="200" y="72"/>
<use xlink:href="#p" x="200" y="88"/>
<use xlink:href="#p" x="200" y="96"/>
<use xlink:href="#p" x="200" y="104"/>
<use xlink:href="#p" x="200" y="128"/>
<use xlink:href="#p" x="200" y="152"/>
<use xlink:href="#p" x="200" y="168"/>
<use xlink:href="#p" x="200" y="184"/>
<use xlink:href="#p" x="200" y="200"/>
<use xlink:href="#p" x="200" y="208"/>
<use xlink:href="#p" x="200" y="216"/>
<use xlink:href="#p" x="200" y="240"/>
<use xlink:href="#p" x="200" y="256"/>
<use xlink:href="#p" x="200" y="272"/>
<use xlink:href="#p" x="200" y="296"/>
<use xlink:href="#p" x="200" y="304"/>
<use xlink:href="#p" x="200" y="312"/>
<use xlink:href="#p" x="200" y="320"/>
<use xlink:href="#p" x="208" y="40"/>
<use xlink:href="#p" x="208" y="56"/>
<use xlink:href="#p" x="208" y="64"/>
<use xlink:href="#p" x="208" y="72"/>
<use xlink:href="#p" x="208" y="80"/>
<use xlink:href="#p" x="208" y="96"/>
<use xlink:href="#p" x="208" y="104"/>
<use xlink:href="#p" x="208" y="112"/>
<use xlink:href="#p" x="208" y="120"/>
<use xlink:href="#p" x="208" y="128"/>
<use xlink:href="#p" x="208" y="136"/>
<use xlink:href="#p" x="208" y="168"/>
<use xlink:href="#p" x="208" y="176"/>
<use xlink:href="#p" x="208" y="184"/>
<use xlink:href="#p" x="208" y="208"/>
<use xlink:href="#p" x="208" y="224"/>
<use xlink:href="#p" x="208" y="248"/>
<use xlink:href="#p" x="208" y="256"/>
<use xlink:href="#p" x="208" y="288"/>
<use xlink:href="#p" x="208" y="304"/>
<use xlink:href="#p" x="216" y="32"/>
<use xlink:href="#p" x="216" y="64"/>
<use xlink:href="#p" x="216" y="72"/>
<use xlink:href="#p" x="216" y="120"/>
<use xlink:href="#p" x="216" y="160"/>
<use xlink:href="#p" x="216" y="176"/>
<use xlink:href="#p" x="216" y="184"/>
<use xlink:href="#p" x="216" y="200"/>
<use xlink:href="#p" x="216" y="216"/>
<use xlink:href="#p" x="216" y="224"/>
<use xlink:href="#p" x="216" y="264"/>
<use xlink:href="#p" x="216" y="272"/>
<use xlink:href="#p" x="216" y="304"/>
<use xlink:href="#p" x="216" y="312"/>
<use xlink:href="#p" x="224" y="32"/>
<use xlink:href="#p" x="224" y="48"/>
<use xlink:href="#p" x="224" y="80"/>
<use xlink:href="#p" x="224" y="104"/>
<use xlink:href="#p" x="224" y="112"/>
<use xlink:href="#p" x="224" y="144"/>
<use xlink:href="#p" x="224" y="152"/>
<use xlink:href="#p" x="224" y="184"/>
<use xlink:href="#p" x="224" y="208"/>
<use xlink:href="#p" x="224" y="232"/>
<use xlink:href="#p" x="224" y="248"/>
<use xlink:href="#p" x="224" y="264"/>
<use xlink:href="#p" x="224" y="280"/>
<use xlink:href="#p" x="224" y="288"/>
<use xlink:href="#p" x="224" y="304"/>
<use xlink:href="#p" x="232" y="32"/>
<use xlink:href="#p" x="232" y="56"/>
<use xlink:href="#p" x="232" y="96"/>
<use xlink:href="#p" x="232" y="112"/>
<use xlink:href="#p" x="232" y="128"/>
<use xlink:href="#p" x="232" y="160"/>
<use xlink:href="#p" x="232" y="192"/>
<use xlink:href="#p" x="232" y="224"/>
<use xlink:href="#p" x="232" y="256"/>
<use xlink:href="#p" x="232" y="272"/>
<use xlink:href="#p" x="232" y="304"/>
<use xlink:href="#p" x="240" y="40"/>
<use xlink:href="#p" x="240" y="48"/>
<use xlink:href="#p" x="240" y="56"/>
<use xlink:href="#p" x="240" y="64"/>
<use xlink:href="#p" x="240" y="72"/>
<use xlink:href="#p" x="240" y="80"/>
<use xlink:href="#p" x="240" y="144"/>
<use xlink:href="#p" x="240" y="152"/>
<use xlink:href="#p" x="240" y="160"/>
<use xlink:href="#p" x="240" y="176"/>
<use xlink:href="#p" x="240" y="208"/>
<use xlink:href="#p" x="240" y="216"/>
<use xlink:href="#p" x="240" y="224"/>
<use xlink:href="#p" x="240" y="240"/>
<use xlink:href="#p" x="240" y="248"/>
<use xlink:href="#p" x="240" y="264"/>
<use xlink:href="#p" x="240" y="288"/>
<use xlink:href="#p" x="240" y="296"/>
<use xlink:href="#p" x="240" y="320"/>
<use xlink:href="#p" x="248" y="48"/>
<use xlink:href="#p" x="248" y="88"/>
<use xlink:href="#p" x="248" y="96"/>
<use xlink:href="#p" x="248" y="112"/>
<use xlink:href="#p" x="248" y="120"/>
<use xlink:href="#p" x="248" y="128"/>
<use xlink:href="#p" x="248" y="136"/>
<use xlink:href="#p" x="248" y="144"/>
<use xlink:href="#p" x="248" y="152"/>
<use xlink:href="#p" x="248" y="160"/>
<use xlink:href="#p" x="248" y="176"/>
<use xlink:href="#p" x="248" y="192"/>
<use xlink:href="#p" x="248" y="200"/>
<use xlink:href="#p" x="248" y="208"/>
<use xlink:href="#p" x="248" y="224"/>
<use xlink:href="#p" x="248" y="232"/>
<use xlink:href="#p" x="248" y="240"/>
<use xlink:href="#p" x="248" y="256"/>
<use xlink:href="#p" x="248" y="264"/>
<use xlink:href="#p" x="248" y="288"/>
<use xlink:href="#p" x="248" y="312"/>
<use xlink:href="#p" x="248" y="320"/>
<use xlink:href="#p" x="256" y="32"/>
<use xlink:href="#p" x="256" y="40"/>
<use xlink:href="#p" x="256" y="48"/>
<use xlink:href="#p" x="256" y="80"/>
<use xlink:href="#p" x="256" y="120"/>
<use xlink:href="#p" x="256" y="152"/>
<use xlink:href="#p" x="256" y="168"/>
<use xlink:href="#p" x="256" y="192"/>
<use xlink:href="#p" x="256" y="200"/>
<use xlink:href="#p" x="256" y="216"/>
<use xlink:href="#p" x="256" y="224"/>
<use xlink:href="#p" x="256" y="232"/>
<use xlink:href="#p" x="256" y="240"/>
<use xlink:href="#p" x="256" y="248"/>
<use xlink:href="#p" x="256" y="256"/>
<use xlink:href="#p" x="256" y="264"/>
<use xlink:href="#p" x="256" y="272"/>
<use xlink:href="#p" x="256" y="280"/>
<use xlink:href="#p" x="256" y="288"/>
<use xlink:href="#p" x="256" y="296"/>
<use xlink:href="#p" x="256" y="312"/>
<use xlink:href="#p" x="256" y="320"/>
<use xlink:href="#p" x="264" y="120"/>
<use xlink:href="#p" x="264" y="128"/>
<use xlink:href="#p" x="264" y="136"/>
<use xlink:href="#p" x="264" y="144"/>
<use xlink:href="#p" x="264" y="152"/>
<use xlink:href="#p" x="264" y="168"/>
<use xlink:href="#p" x="264" y="176"/>
<use xlink:href="#p" x="264" y="192"/>
<use xlink:href="#p" x="264" y="216"/>
<use xlink:href="#p" x="264" y="256"/>
<use xlink:href="#p" x="264" y="288"/>
<use xlink:href="#p" x="264" y="304"/>
<use xlink:href="#p" x="264" y="320"/>
<use xlink:href="#p" x="272" y="32"/>
<use xlink:href="#p" x="272" y="40"/>
<use xlink:href="#p" x="272" y="48"/>
<use xlink:href="#p" x="272" y="56"/>
<use xlink:href="#p" x="272" y="64"/>
<use xlink:href="#p" x="272" y="72"/>
<use xlink:href="#p" x="272" y="80"/>
<use xlink:href="#p" x="272" y="96"/>
<use xlink:href="#p" x="272" y="104"/>
<use xlink:href="#p" x="272" y="112"/>
<use xlink:href="#p" x="272" y="128"/>
<use xlink:href="#p" x="272" y="144"/>
<use xlink:href="#p" x="272" y="160"/>
<use xlink:href="#p" x="272" y="184"/>
<use xlink:href="#p" x="272" y="192"/>
<use xlink:href="#p" x="272" y="208"/>
<use xlink:href="#p" x="272" y="224"/>
<use xlink:href="#p" x="272" y="232"/>
<use xlink:href="#p" x="272" y="248"/>
<use xlink:href="#p" x="272" y="256"/>
<use xlink:href="#p" x="272" y="272"/>
<use xlink:href="#p" x="272" y="288"/>
<use xlink:href="#p" x="272" y="296"/>
<use xlink:href="#p" x="272" y="312"/>
<use xlink:href="#p" x="280" y="32"/>
<use xlink:href="#p" x="280" y="80"/>
<use xlink:href="#p" x="280" y="104"/>
<use xlink:href="#p" x="280" y="112"/>
<use xlink:href="#p" x="280" y="160"/>
<use xlink:href="#p" x="280" y="184"/>
<use xlink:href="#p" x="280" y="200"/>
<use xlink:href="#p" x="280" y="208"/>
<use xlink:href="#p" x="280" y="224"/>
<use xlink:href="#p" x="280" y="232"/>
<use xlink:href="#p" x="280" y="248"/>
<use xlink:href="#p" x="280" y="256"/>
<use xlink:href="#p" x="280" y="288"/>
<use xlink:href="#p" x="280" y="304"/>
<use xlink:href="#p" x="288" y="32"/>
<use xlink:href="#p" x="288" y="48"/>
<use xlink:href="#p" x="288" y="56"/>
<use xlink:href="#p" x="288" y="64"/>
<use xlink:href="#p" x="288" y="80"/>
<use xlink:href="#p" x="288" y="96"/>
<use xlink:href="#p" x="288" y="104"/>
<use xlink:href="#p" x="288" y="112"/>
<use xlink:href="#p" x="288" y="144"/>
<use xlink:href="#p" x="288" y="152"/>
<use xlink:href="#p" x="288" y="160"/>
<use xlink:href="#p" x="288" y="176"/>
<use xlink:href="#p" x="288" y="200"/>
<use xlink:href="#p" x="288" y="216"/>
<use xlink:href="#p" x="288" y="240"/>
<use xlink:href="#p" x="288" y="248"/>
<use xlink:href="#p" x="288" y="256"/>
<use xlink:href="#p" x="288" y="264"/>
<use xlink:href="#p" x="288" y="272"/>
<use xlink:href="#p" x="288" y="280"/>
<use xlink:href="#p" x="288" y="288"/>
<use xlink:href="#p" x="288" y="296"/>
<use xlink:href="#p" x="288" y="320"/>
<use xlink:href="#p" x="296" y="32"/>
<use xlink:href="#p" x="296" y="48"/>
<use xlink:href="#p" x="296" y="56"/>
<use xlink:href="#p" x="296" y="64"/>
<use xlink:href="#p" x="296" y="80"/>
<use xlink:href="#p" x="296" y="144"/>
<use xlink:href="#p" x="296" y="152"/>
<use xlink:href="#p" x="296" y="176"/>
<use xlink:href="#p" x="296" y="184"/>
<use xlink:href="#p" x="296" y="192"/>
<use xlink:href="#p" x="296" y="232"/>
<use xlink:href="#p" x="296" y="240"/>
<use xlink:href="#p" x="296" y="248"/>
<use xlink:href="#p" x="296" y="256"/>
<use xlink:href="#p" x="296" y="272"/>
<use xlink:href="#p" x="296" y="312"/>
<use xlink:href="#p" x="296" y="320"/>
<use xlink:href="#p" x="304" y="32"/>
<use xlink:href="#p" x="304" y="48"/>
<use xlink:href="#p" x="304" y="56"/>
<use xlink:href="#p" x="304" y="64"/>
<use xlink:href="#p" x="304" y="80"/>
<use xlink:href="#p" x="304" y="96"/>
<use xlink:href="#p" x="304" y="152"/>
<use xlink:href="#p" x="304" y="160"/>
<use xlink:href="#p" x="304" y="200"/>
<use xlink:href="#p" x="304" y="248"/>
<use xlink:href="#p" x="304" y="264"/>
<use xlink:href="#p" x="304" y="272"/>
<use xlink:href="#p" x="304" y="288"/>
<use xlink:href="#p" x="304" y="296"/>
<use xlink:href="#p" x="304" y="304"/>
<use xlink:href="#p" x="304" y="320"/>
<use xlink:href="#p" x="312" y="32"/>
<use xlink:href="#p" x="312" y="80"/>
<use xlink:href="#p" x="312" y="112"/>
<use xlink:href="#p" x="312" y="120"/>
<use xlink:href="#p" x="312" y="128"/>
<use xlink:href="#p" x="312" y="144"/>
<use xlink:href="#p" x="312" y="152"/>
<use xlink:href="#p" x="312" y="168"/>
<use xlink:href="#p" x="312" y="176"/>
<use xlink:href="#p" x="312" y="200"/>
<use xlink:href="#p" x="312" y="216"/>
<use xlink:href="#p" x="312" y="224"/>
<use xlink:href="#p" x="312" y="232"/>
<use xlink:href="#p" x="320" y="32"/>
<use xlink:href="#p" x="320" y="40"/>
<use xlink:href="#p" x="320" y="48"/>
<use xlink:href="#p" x="320" y="56"/>
<use xlink:href="#p" x="320" y="64"/>
<use xlink:href="#p" x="320" y="72"/>
<use xlink:href="#p" x="320" y="80"/>
<use xlink:href="#p" x="320" y="96"/>
<use xlink:href="#p" x="320" y="112"/>
<use xlink:href="#p" x="320" y="120"/>
<use xlink:href="#p" x="320" y="128"/>
<use xlink:href="#p" x="320" y="144"/>
<use xlink:href="#p" x="320" y="160"/>
<use xlink:href="#p" x="320" y="176"/>
<use xlink:href="#p" x="320" y="208"/>
<use xlink:href="#p" x="320" y="216"/>
<use xlink:href="#p" x="320" y="224"/>
<use xlink:href="#p" x="320" y="240"/>
<use xlink:href="#p" x="320" y="256"/>
<use xlink:href="#p" x="320" y="272"/>
<use xlink:href="#p" x="320" y="280"/>
<use xlink:href="#p" x="320" y="288"/>
<use xlink:href="#p" x="320" y="304"/>
<use xlink:href="#p" x="320" y="312"/>
<use xlink:href="#p" x="320" y="320"/>
</g>
<g></g></svg>